<?xml version="1.0" standalone="no"?>
<svg xmlns="http://www.w3.org/2000/svg" viewBox="0 0 138.792 29" width="138.792" height="29"><g fill="#000000" color="#000000" transform="translate(0, 0) scale(0.6041667)"><svg width="48.0" height="48.0" x="0.0" y="0.0" viewBox="0 0 48 48"><path fill="currentColor" fill-rule="nonzero" d="M.3.72h46.93v46.93H.3V.72zm44.17 7.36v-4.6h-9.8c-6.88 6.64-7.34 11.5-1.82 15.44 5.23 3.74 9.19 7.73 11.62 11.45v-6.8c-7.34-4.71-10.88-9.09-10.34-13.35.31-2.51 1.86-3.97 4.3-3.97 1.6 0 3.59.61 6.04 1.83zm0 3.12c-2.68-1.47-4.72-2.19-6.04-2.19-1.01 0-1.42.38-1.56 1.55-.33 2.65 2.13 5.94 7.6 9.7V11.2zM30.84 3.48H18.89c.36.92.64 1.7.96 2.61 1.14 3.28 1.94 6.34 2.31 9.25.15 1.15.22 2.26.22 3.32 0 2.75-.41 5.18-1.42 9.46-1.09 4.64-1.34 5.96-1.34 7.79 0 2.79.55 5.78 1.66 8.97h4.13c-2.32-9.24-1.1-15.1 4.05-17.16 5.7-2.28 9.76 3.78 12.67 17.16h2.33v-6.9c0-4.18-4.76-10.77-13.23-16.82-6.51-4.65-6.53-10.76-.39-17.68zM28.26 44.9h3.59c-.16-1.19-.32-2.26-.48-3.22-.22-1.35-.45-2.46-.67-3.34-.18-.74.26-1.49 1-1.67.74-.18 1.49.26 1.67 1 .24.96.48 2.14.71 3.56.18 1.09.36 2.31.54 3.68h4.67c-2.53-11.33-5.62-15.87-8.82-14.59-3.57 1.42-4.45 6.14-2.21 14.58zm-9.89 0c-1-3.14-1.51-6.13-1.51-8.97 0-2.14.27-3.53 1.42-8.43.96-4.08 1.34-6.35 1.34-8.83 0-.94-.07-1.93-.2-2.97-.34-2.7-1.1-5.58-2.18-8.69-.41-1.19-.77-2.13-1.32-3.52H9.46c.3 1.1.96 2.36 2.08 4.14 1.91 3.05 2.14 3.44 2.49 4.67.57 2-.06 3.7-2.01 4.81-3.17 1.81-6.17.5-8.97-3.52v10.93c4.01-3.28 7.52-4.11 10.43-2.17 1.72 1.14 2.16 2.75 1.45 4.53-.24.62-.61 1.24-1.15 2.03-.28.41-1.33 1.86-1.43 2-1.65 2.32-2.4 3.95-2.4 5.71 0 3.53.7 6.28 2.07 8.28h6.35zm-9.52 0c-1.11-2.26-1.65-5.02-1.65-8.28 0-2.48.95-4.55 2.91-7.3.12-.17 1.15-1.59 1.41-1.96.43-.63.7-1.1.86-1.48.24-.61.18-.82-.41-1.22-1.99-1.32-4.91-.29-8.9 3.57V44.9h5.78zM6.63 3.48H3.06V8c2.87 6.05 5.37 7.97 7.6 6.7.81-.46.95-.85.72-1.66-.24-.85-.47-1.25-2.17-3.96-1.48-2.33-2.3-3.96-2.58-5.6z"></path></svg></g><line x1="41" y1="1" x2="41" y2="28" stroke="#000000" stroke-linecap="round"></line><path fill="#000000" fill-rule="nonzero" d="M2.71 19.78L0 19.78L0 0.34L4.82 0.34Q6.58 0.34 7.62 0.97Q8.66 1.61 9.14 2.81Q9.62 4.01 9.62 5.71L9.62 5.71Q9.62 7.25 9.08 8.38Q8.54 9.50 7.49 10.12Q6.43 10.73 4.85 10.73L4.85 10.73L2.71 10.73L2.71 19.78ZM2.71 2.28L2.71 8.78L3.96 8.78Q5.14 8.78 5.81 8.52Q6.48 8.26 6.77 7.60Q7.06 6.94 7.06 5.74L7.06 5.74Q7.06 4.34 6.85 3.60Q6.65 2.86 6 2.57Q5.35 2.28 3.98 2.28L3.98 2.28L2.71 2.28ZM13.94 19.78L11.38 19.78L11.38 5.90L13.94 5.90L13.94 7.87Q14.71 6.60 15.48 6.17Q16.25 5.74 17.02 5.74L17.02 5.74Q17.11 5.74 17.20 5.74Q17.28 5.74 17.42 5.76L17.42 5.76L17.42 8.59Q17.14 8.47 16.76 8.39Q16.39 8.30 16.01 8.30L16.01 8.30Q15.41 8.30 14.92 8.58Q14.42 8.86 13.94 9.65L13.94 9.65L13.94 19.78ZM22.85 19.97L22.85 19.97Q21.22 19.97 20.33 19.33Q19.44 18.70 19.09 17.46Q18.74 16.22 18.74 14.42L18.74 14.42L18.74 11.26Q18.74 9.41 19.10 8.18Q19.46 6.96 20.36 6.34Q21.26 5.71 22.85 5.71L22.85 5.71Q24.60 5.71 25.43 6.43Q26.26 7.15 26.52 8.51Q26.78 9.86 26.78 11.76L26.78 11.76L26.78 12.89L21.31 12.89L21.31 15.67Q21.31 16.51 21.47 17.04Q21.62 17.57 21.97 17.82Q22.32 18.07 22.87 18.07L22.87 18.07Q23.45 18.07 23.75 17.80Q24.05 17.52 24.16 17.00Q24.26 16.49 24.26 15.79L24.26 15.79L24.26 14.95L26.76 14.95L26.76 15.48Q26.76 17.57 25.87 18.77Q24.98 19.97 22.85 19.97ZM21.31 10.75L21.31 11.50L24.26 11.50L24.26 10.25Q24.26 9.38 24.17 8.80Q24.07 8.21 23.77 7.91Q23.47 7.61 22.82 7.61L22.82 7.61Q22.20 7.61 21.88 7.90Q21.55 8.18 21.43 8.87Q21.31 9.55 21.31 10.75L21.31 10.75ZM23.40 4.75L22.10 4.75L23.52 0L26.09 0L23.40 4.75ZM32.33 19.97L32.33 19.97Q30.62 19.97 29.59 18.90Q28.56 17.83 28.42 16.08L28.42 16.08L30.55 15.43Q30.74 16.75 31.20 17.41Q31.66 18.07 32.54 18.07L32.54 18.07Q33.24 18.07 33.60 17.68Q33.96 17.28 33.96 16.61L33.96 16.61Q33.96 16.01 33.70 15.53Q33.43 15.05 32.83 14.54L32.83 14.54L30.46 12.50Q29.74 11.88 29.24 11.11Q28.75 10.34 28.75 9.12L28.75 9.12Q28.75 8.02 29.20 7.26Q29.64 6.50 30.44 6.11Q31.25 5.71 32.33 5.71L32.33 5.71Q33.98 5.71 34.86 6.78Q35.74 7.85 35.86 9.36L35.86 9.36L34.13 10.01Q34.03 9.29 33.84 8.75Q33.65 8.21 33.31 7.91Q32.98 7.61 32.42 7.61L32.42 7.61Q31.80 7.61 31.43 8.03Q31.06 8.45 31.06 9.02L31.06 9.02Q31.06 9.38 31.21 9.73Q31.37 10.08 31.75 10.42L31.75 10.42L34.20 12.67Q34.70 13.13 35.15 13.66Q35.59 14.18 35.88 14.86Q36.17 15.53 36.17 16.42L36.17 16.42Q36.17 17.59 35.69 18.38Q35.21 19.18 34.34 19.57Q33.48 19.97 32.33 19.97ZM41.78 19.97L41.78 19.97Q40.70 19.97 40.04 19.56Q39.38 19.15 39.08 18.41Q38.78 17.66 38.78 16.66L38.78 16.66L38.78 7.61L37.32 7.61L37.32 5.90L38.78 5.90L38.78 1.85L41.35 1.85L41.35 5.90L43.58 5.90L43.58 7.61L41.35 7.61L41.35 16.49Q41.35 17.30 41.62 17.65Q41.88 18 42.62 18L42.62 18Q42.82 18 43.07 17.98Q43.32 17.95 43.56 17.93L43.56 17.93L43.56 19.82Q43.08 19.90 42.67 19.93Q42.26 19.97 41.78 19.97ZM47.98 19.97L47.98 19.97Q47.16 19.97 46.54 19.50Q45.91 19.03 45.55 18.30Q45.19 17.57 45.19 16.75L45.19 16.75Q45.19 15.46 45.62 14.57Q46.06 13.68 46.81 13.07Q47.57 12.46 48.56 12Q49.56 11.54 50.66 11.11L50.66 11.11L50.66 10.13Q50.66 9.29 50.57 8.74Q50.47 8.18 50.17 7.91Q49.87 7.63 49.27 7.63L49.27 7.63Q48.74 7.63 48.42 7.87Q48.10 8.11 47.95 8.56Q47.81 9 47.81 9.60L47.81 9.60L47.81 10.30L45.26 10.20Q45.31 7.90 46.32 6.80Q47.33 5.71 49.44 5.71L49.44 5.71Q51.50 5.71 52.37 6.84Q53.23 7.97 53.23 10.10L53.23 10.10L53.23 16.44Q53.23 17.09 53.27 17.69Q53.30 18.29 53.36 18.80Q53.42 19.32 53.47 19.78L53.47 19.78L51.12 19.78Q51.05 19.39 50.94 18.80Q50.83 18.22 50.78 17.74L50.78 17.74Q50.54 18.55 49.86 19.26Q49.18 19.97 47.98 19.97ZM48.98 17.76L48.98 17.76Q49.37 17.76 49.70 17.54Q50.04 17.33 50.30 17.05Q50.57 16.78 50.66 16.61L50.66 16.61L50.66 12.67Q50.06 13.01 49.54 13.34Q49.01 13.68 48.61 14.05Q48.22 14.42 47.99 14.89Q47.76 15.36 47.76 15.96L47.76 15.96Q47.76 16.80 48.07 17.28Q48.38 17.76 48.98 17.76ZM59.21 19.97L59.21 19.97Q58.13 19.97 57.47 19.56Q56.81 19.15 56.51 18.41Q56.21 17.66 56.21 16.66L56.21 16.66L56.21 7.61L54.74 7.61L54.74 5.90L56.21 5.90L56.21 1.85L58.78 1.85L58.78 5.90L61.01 5.90L61.01 7.61L58.78 7.61L58.78 16.49Q58.78 17.30 59.04 17.65Q59.30 18 60.05 18L60.05 18Q60.24 18 60.49 17.98Q60.74 17.95 60.98 17.93L60.98 17.93L60.98 19.82Q60.50 19.90 60.10 19.93Q59.69 19.97 59.21 19.97ZM63.48 6.29L62.09 6.29L62.09 0.34L64.42 0.34L63.48 6.29ZM68.45 19.97L68.45 19.97Q67.63 19.97 67.01 19.50Q66.38 19.03 66.02 18.30Q65.66 17.57 65.66 16.75L65.66 16.75Q65.66 15.46 66.10 14.57Q66.53 13.68 67.28 13.07Q68.04 12.46 69.04 12Q70.03 11.54 71.14 11.11L71.14 11.11L71.14 10.13Q71.14 9.29 71.04 8.74Q70.94 8.18 70.64 7.91Q70.34 7.63 69.74 7.63L69.74 7.63Q69.22 7.63 68.89 7.87Q68.57 8.11 68.42 8.56Q68.28 9 68.28 9.60L68.28 9.60L68.28 10.30L65.74 10.20Q65.78 7.90 66.79 6.80Q67.80 5.71 69.91 5.71L69.91 5.71Q71.98 5.71 72.84 6.84Q73.70 7.97 73.70 10.10L73.70 10.10L73.70 16.44Q73.70 17.09 73.74 17.69Q73.78 18.29 73.84 18.80Q73.90 19.32 73.94 19.78L73.94 19.78L71.59 19.78Q71.52 19.39 71.41 18.80Q71.30 18.22 71.26 17.74L71.26 17.74Q71.02 18.55 70.33 19.26Q69.65 19.97 68.45 19.97ZM69.46 17.76L69.46 17.76Q69.84 17.76 70.18 17.54Q70.51 17.33 70.78 17.05Q71.04 16.78 71.14 16.61L71.14 16.61L71.14 12.67Q70.54 13.01 70.01 13.34Q69.48 13.68 69.08 14.05Q68.69 14.42 68.46 14.89Q68.23 15.36 68.23 15.96L68.23 15.96Q68.23 16.80 68.54 17.28Q68.86 17.76 69.46 17.76ZM78.91 19.78L76.34 19.78L76.34 5.90L78.91 5.90L78.91 19.78ZM78.91 3.84L76.34 3.84L76.34 1.15L78.91 1.15L78.91 3.84ZM84.31 19.78L81.74 19.78L81.74 5.90L84.31 5.90L84.31 7.87Q85.08 6.60 85.85 6.17Q86.62 5.74 87.38 5.74L87.38 5.74Q87.48 5.74 87.56 5.74Q87.65 5.74 87.79 5.76L87.79 5.76L87.79 8.59Q87.50 8.47 87.13 8.39Q86.76 8.30 86.38 8.30L86.38 8.30Q85.78 8.30 85.28 8.58Q84.79 8.86 84.31 9.65L84.31 9.65L84.31 19.78Z" transform="translate(51, 4.612)"></path></svg>